<svg width="16" height="16" viewBox="0 0 16 16" fill="none" xmlns="http://www.w3.org/2000/svg">
<path d="M4 7.33203C4 5.44641 4 4.5036 4.58579 3.91782C5.17157 3.33203 6.11438 3.33203 8 3.33203H10C11.8856 3.33203 12.8284 3.33203 13.4142 3.91782C14 4.5036 14 5.44641 14 7.33203V10.6654C14 12.551 14 13.4938 13.4142 14.0796C12.8284 14.6654 11.8856 14.6654 10 14.6654H8C6.11438 14.6654 5.17157 14.6654 4.58579 14.0796C4 13.4938 4 12.551 4 10.6654V7.33203Z" stroke="black" stroke-opacity="0.44"/>
<path d="M4 12.6654C2.89543 12.6654 2 11.7699 2 10.6654V6.66536C2 4.15121 2 2.89413 2.78105 2.11308C3.5621 1.33203 4.81918 1.33203 7.33333 1.33203H10C11.1046 1.33203 12 2.22746 12 3.33203" stroke="black" stroke-opacity="0.44"/>
</svg>
